<svg xmlns="http://www.w3.org/2000/svg" viewBox="0 0 1495.3441 352.01792" height="352.018" width="1495.344"><g transform="translate(795.857 -356.362)"><image width="1496" height="352" preserveAspectRatio="none" x="-795.857" y="356.362"/><path d="M-795.857 707.916c0-.573 9.63-23.42 51.237-121.554 17.838-42.075 47.008-111.037 64.82-153.25l32.39-76.75h47.776c41.926 0 47.777.185 47.777 1.51 0 1.303 30.9 74.6 121.202 287.49 11.548 27.225 22.284 52.542 23.857 56.26l2.86 6.758-52.552-.26-52.55-.258-11.47-28.5c-6.31-15.675-11.723-29.08-12.03-29.787-1.79-4.12-3.346-4.213-70.093-4.213h-63.875l-2.1 2.25c-1.157 1.238-7.25 15.3-13.542 31.25l-11.44 29-51.133.26c-28.124.142-51.134.05-51.134-.206zm233.006-139.304c.01-1.296-37.48-96.208-38.007-96.217-.356-.006-35.443 86.782-38.833 96.055-.198.54 15.44.912 38.25.912 21.22 0 38.585-.337 38.59-.75zm194.24 23.5l.253-116.25 48.25-.26 48.25-.26v147.24l28.75-.496c31.81-.55 39.272-1.59 54.958-7.66 34.255-13.255 54.395-47.485 51.988-88.36-2.25-38.212-24.52-66.87-59.907-77.083-11.45-3.305-31.196-5.893-44.037-5.772l-10.75.102v-85.2l23.75.5c26.58.556 39.567 2.137 59.836 7.285 48.416 12.296 88.694 41.215 109.695 78.76 14.737 26.346 21.485 57.285 20.434 93.687-.692 23.953-3.904 41.207-11.183 60.063-14.514 37.6-41.13 67.062-77.534 85.82-21.402 11.03-40.478 16.745-72.07 21.593l-16.57 2.542h-154.369l.254-116.25zm330.093 113.01l28.116-66.76C4.306 603.437 36.995 526.165 62.24 466.646c25.245-59.52 45.9-108.682 45.9-109.25 0-.697 15.606-1.034 47.926-1.034h47.924l1.435 4.75c1.446 4.79 71.426 170.236 120.31 284.438 14.523 33.93 26.406 61.94 26.406 62.25 0 .31-23.57.562-52.378.562h-52.378l-11.872-29.64c-10.343-25.823-12.26-29.88-14.872-31.497-2.84-1.757-6.41-1.856-67.174-1.86l-64.175-.003-2.192 2.75c-1.205 1.512-7.257 15.575-13.45 31.25l-11.257 28.5-51.144.26-51.144.258 1.375-3.26zm231.383-137.71c-.966-3.693-37.224-95.045-37.723-95.042-.275 0-8.575 20.362-18.444 45.247-9.87 24.885-18.54 46.708-19.265 48.495l-1.32 3.25h38.63c37.806 0 38.62-.04 38.12-1.95zm310.277 101.95v-39l26.75-.008c30.873-.01 39.722-.807 51.35-4.636 14.308-4.71 21.39-13.932 21.39-27.856 0-13.292-6.744-22.685-18.99-26.453-13.89-4.276-23.578-5.036-64.25-5.042l-38.25-.005v25h-94V358.285l104.75.34c103.996.335 104.82.354 114.494 2.557 34.04 7.753 58.6 24.72 70.235 48.52 5.998 12.27 7.024 17.864 6.997 38.16-.024 17.56-.1 18.222-3.165 27.05-7.157 20.628-19.894 35.076-41.05 46.563-3.43 1.863-6.244 3.695-6.25 4.07-.01.376 1 1 2.238 1.385 1.237.387 7.786 3.39 14.553 6.67 27.6 13.39 40.26 27.575 46.927 52.574 2.273 8.525 2.586 11.67 2.612 26.19.027 15.125-.195 17.232-2.67 25.306-9.105 29.727-30.297 49.872-64.172 61-9.106 2.993-12.84 3.866-31 7.25-12.46 2.323-14.778 2.424-55.75 2.433l-42.75.01v-39zm49-171.936c16.968-1.798 28.682-7.715 33.12-16.73 2.005-4.07 2.38-6.344 2.38-14.414 0-8.923-.208-9.918-3.036-14.5-3.664-5.937-10.57-10.386-20.218-13.022-5.885-1.608-11.633-1.888-44.997-2.185l-38.25-.34v30.396c0 16.72.3 30.7.667 31.066.997.997 60.528.77 70.333-.27z" fill="#fff"/></g></svg>